<?xml version="1.0" encoding="utf-8"?>
<!-- Generator: Adobe Illustrator 21.0.0, SVG Export Plug-In . SVG Version: 6.00 Build 0)  -->
<svg version="1.1" id="Capa_1" xmlns="http://www.w3.org/2000/svg" xmlns:xlink="http://www.w3.org/1999/xlink" x="0px" y="0px"
	 viewBox="0 0 512 512" style="enable-background:new 0 0 512 512;" xml:space="preserve">
<style type="text/css">
	.st0{fill:#006DF0;}
</style>
<path class="st0" d="M269.7,113.1c-0.3-0.4-0.6-0.8-1-1.1c-4.5-4-4.6-2.8,0.3-7.3c3.6-3.3,8-5.9,12-8.8c10.6-7.6,17.5-17.8,22.2-30
	c10.5-27.2-20.5-46-36.1-62.1c-11.3-11.6-29,6.1-17.7,17.7c8.7,9,19.9,16.3,27.4,26.3c8.5,11.2-4.4,23.5-13.3,29.8
	c-13.7,9.6-25.5,22.4-22.8,36.1c-61.3,5.7-118.1,39.4-118.1,98.6v166.4c0,73.5,59.8,133.3,133.3,133.3
	c73.5,0,133.3-59.8,133.3-133.3V212.3C389.3,147.6,329.1,116.3,269.7,113.1z M147.8,212.3c0-44,47.8-69.5,97.2-73.7v153.4
	c-45.1-2.3-81.8-12.5-97.2-17.6V212.3z M364.2,378.7c0,59.7-48.5,108.2-108.2,108.2c-59.7,0-108.2-48.5-108.2-108.2v-77.8
	c22.4,6.8,64.6,17,114.4,17c31.9,0,67-4.3,102-16.3L364.2,378.7L364.2,378.7z M364.2,274.9c-31.7,12.1-64.1,16.9-94.1,17.5V138.3
	c48.4,2.9,94.1,26.1,94.1,74.1V274.9z M234,151.8V279c-19.5,3.4-76.8-12.6-76.8-12.6C148.7,177.2,182.1,161.5,234,151.8z"/>
</svg>
